<svg width="7" height="12" viewBox="0 0 7 12" fill="none" xmlns="http://www.w3.org/2000/svg">
<path opacity="0.25" d="M5.99863 5.94724C5.9922 5.84603 5.95134 5.74983 5.88256 5.67396L1.70371 1.13112C1.5924 1.00945 1.42312 0.955277 1.25984 0.989076C1.09656 1.02287 0.964208 1.13949 0.912808 1.29484C0.861408 1.45018 0.898806 1.62056 1.01086 1.74157L4.91039 5.97919L1.01086 10.2168C0.898805 10.3378 0.861406 10.5082 0.912806 10.6635C0.964206 10.8189 1.09656 10.9355 1.25984 10.9693C1.42312 11.0031 1.5924 10.9489 1.70371 10.8273L5.88256 6.28441C5.96649 6.19213 6.0084 6.0704 5.99863 5.94724Z" fill="black" stroke="black" stroke-width="1.2"/>
</svg>
